<svg width="208" height="208" viewBox="0 0 208 208" fill="none" xmlns="http://www.w3.org/2000/svg">
<path d="M189.119 96.1577V184.092C189.119 187.405 186.433 190.092 183.119 190.092H24.937C21.6233 190.092 18.937 187.405 18.937 184.092V96.1577" fill="#F9F9F9"/>
<path d="M189.119 96.1577V184.092C189.119 187.405 186.433 190.092 183.119 190.092H24.937C21.6233 190.092 18.937 187.405 18.937 184.092V96.1577" stroke="#9F9F9F" stroke-width="5" stroke-linecap="round" stroke-linejoin="round"/>
<path d="M107.368 33.4044C105.28 31.9121 102.474 31.9132 100.387 33.4071L22.398 89.2352C18.8793 91.754 19.103 97.0561 22.8214 99.2696L100.804 145.692C102.697 146.819 105.056 146.818 106.948 145.689L184.929 99.1629C188.645 96.946 188.863 91.6445 185.343 89.1288L107.368 33.4044Z" fill="#F2F2F2" stroke="#9F9F9F" stroke-width="5" stroke-linecap="round" stroke-linejoin="round"/>
<path d="M43.8461 49.6293C40.5323 49.6291 37.8457 52.3155 37.8457 55.6293V103.027C37.8457 105.098 38.9137 107.022 40.671 108.118L102.339 146.571C102.8 146.858 103.332 147.011 103.876 147.011C104.42 147.011 104.953 146.858 105.414 146.569L167.389 107.844C169.143 106.748 170.209 104.825 170.209 102.756V55.6379C170.209 52.3244 167.523 49.6382 164.21 49.6379L43.8461 49.6293Z" fill="#FFF593" stroke="#F4BA00" stroke-width="5"/>
<path d="M20 186.743L75.9383 149L20 186.743ZM187.964 186.743L132.11 149L187.964 186.743Z" fill="#FFF593"/>
<path d="M20 186.743L75.9383 149M187.964 186.743L132.11 149" stroke="#9F9F9F" stroke-width="6" stroke-linecap="round" stroke-linejoin="round"/>
<path d="M18.937 95.5754L100.699 146.54C102.644 147.752 105.109 147.751 107.052 146.537L188.807 95.4619" stroke="#9F9F9F" stroke-width="5" stroke-linecap="round" stroke-linejoin="round"/>
<path d="M122.838 75.0772L91.9339 107.705L122.838 75.0772ZM91.9548 107.591L75.6621 91.1992L91.9548 107.591Z" fill="#D5FFF6"/>
<path d="M122.838 75.0772L91.9339 107.705M91.9548 107.591L75.6621 91.1992" stroke="#71C837" stroke-width="9.4592" stroke-linecap="round" stroke-linejoin="round"/>
</svg>
