<svg width="20" height="20" viewBox="0 0 20 20" fill="none" xmlns="http://www.w3.org/2000/svg">
<path d="M17.9534 9.20413C18.2067 9.55938 18.3334 9.73704 18.3334 9.99996C18.3334 10.2629 18.2067 10.4405 17.9534 10.7958C16.8149 12.3921 13.9077 15.8333 10 15.8333C6.09234 15.8333 3.1851 12.3921 2.04672 10.7958C1.79336 10.4405 1.66669 10.2629 1.66669 9.99996C1.66669 9.73704 1.79336 9.55938 2.04672 9.20413C3.1851 7.60783 6.09234 4.16663 10 4.16663C13.9077 4.16663 16.8149 7.60783 17.9534 9.20413Z" stroke="black" stroke-opacity="0.6"/>
<path d="M12.5 10C12.5 8.61925 11.3807 7.5 10 7.5C8.61925 7.5 7.5 8.61925 7.5 10C7.5 11.3807 8.61925 12.5 10 12.5C11.3807 12.5 12.5 11.3807 12.5 10Z" stroke="black" stroke-opacity="0.6"/>
</svg>
