<svg width="8" height="8" viewBox="0 0 8 8" fill="none" xmlns="http://www.w3.org/2000/svg">
<path d="M4.00215 0.107178C3.31413 0.107178 2.64155 0.311201 2.06948 0.693446C1.49741 1.07569 1.05154 1.61899 0.78824 2.25464C0.524945 2.89029 0.456055 3.58975 0.590281 4.26455C0.724508 4.93935 1.05582 5.5592 1.54233 6.04571C2.02884 6.53221 2.64868 6.86353 3.32349 6.99775C3.99829 7.13198 4.69774 7.06309 5.33339 6.7998C5.96904 6.5365 6.51234 6.09063 6.89459 5.51855C7.27683 4.94648 7.48086 4.27391 7.48086 3.58589C7.48086 2.66328 7.11435 1.77845 6.46197 1.12607C5.80958 0.473684 4.92476 0.107178 4.00215 0.107178ZM4.00215 5.84395C3.55555 5.84395 3.11897 5.71152 2.74764 5.4634C2.3763 5.21528 2.08688 4.86262 1.91597 4.45001C1.74506 4.0374 1.70034 3.58338 1.78747 3.14536C1.8746 2.70734 2.08966 2.30499 2.40546 1.98919C2.72125 1.6734 3.1236 1.45834 3.56162 1.37121C3.99964 1.28408 4.45367 1.3288 4.86627 1.49971C5.27888 1.67062 5.63154 1.96004 5.87966 2.33137C6.12778 2.70271 6.26021 3.13928 6.26021 3.58589C6.26021 4.18476 6.02231 4.75911 5.59884 5.18258C5.17537 5.60605 4.60102 5.84395 4.00215 5.84395Z" fill="black"/>
</svg>
