<svg width="192" height="165" viewBox="0 0 192 165" fill="none" xmlns="http://www.w3.org/2000/svg">
<path d="M81.4386 157.866C119.339 157.866 150.063 127.142 150.063 89.2417C150.063 51.3414 119.339 20.6171 81.4386 20.6171C43.5383 20.6171 12.814 51.3414 12.814 89.2417C12.814 127.142 43.5383 157.866 81.4386 157.866Z" fill="#C0FDFF"/>
<path d="M106.779 151.238H77.2105C66.7888 151.238 58.3101 142.76 58.3101 132.338V68.0794C58.3101 57.6577 66.7888 49.179 77.2105 49.179H160.089C170.511 49.179 178.99 57.6577 178.99 68.0794V132.338C178.99 137.388 177.024 142.13 173.456 145.701C172.258 146.899 170.311 146.899 169.113 145.701C167.915 144.503 167.915 142.556 169.113 141.358C171.521 138.95 172.85 135.744 172.85 132.338V68.0794C172.85 61.0446 167.128 55.323 160.093 55.323H77.2067C70.1718 55.323 64.4502 61.0446 64.4502 68.0794V132.338C64.4502 139.373 70.1718 145.094 77.2067 145.094H106.775C108.472 145.094 109.847 146.469 109.847 148.166C109.847 149.864 108.472 151.238 106.779 151.238Z" fill="black"/>
<path d="M150.063 151.238H141.592C139.895 151.238 138.52 149.864 138.52 148.166C138.52 146.469 139.895 145.094 141.592 145.094H150.063C151.761 145.094 153.135 146.469 153.135 148.166C153.135 149.864 151.761 151.238 150.063 151.238ZM141.596 55.3268C139.899 55.3268 138.524 53.9521 138.524 52.2548V33.8651C138.524 22.9057 129.608 13.9892 118.648 13.9892C107.689 13.9892 98.7724 22.9057 98.7724 33.8651V52.2548C98.7724 53.9521 97.3977 55.3268 95.7004 55.3268C94.0031 55.3268 92.6284 53.9521 92.6284 52.2548V33.8651C92.6284 19.5188 104.302 7.84521 118.648 7.84521C132.995 7.84521 144.668 19.5188 144.668 33.8651V52.2548C144.668 53.9483 143.293 55.3268 141.596 55.3268ZM118.648 118.668C116.951 118.668 115.576 117.293 115.576 115.596V78.6702C115.576 76.9729 116.951 75.5982 118.648 75.5982C120.346 75.5982 121.72 76.9729 121.72 78.6702V115.596C121.72 117.289 120.346 118.668 118.648 118.668Z" fill="black"/>
<path d="M160.085 49.179H144.668V33.8651C144.668 19.5188 132.994 7.84521 118.648 7.84521C104.298 7.84521 92.6281 19.5188 92.6281 33.8651V49.179H77.2067C66.7849 49.179 58.3101 57.6577 58.3101 68.0795V132.342C58.3101 137.388 60.2723 142.134 63.8435 145.705C65.0416 146.903 66.9885 146.903 68.1865 145.705C69.3885 144.503 69.3885 142.56 68.1865 141.358C65.7789 138.951 64.4541 135.748 64.4541 132.342V68.0795C64.4541 61.0484 70.1757 55.323 77.2067 55.323H160.085C167.12 55.323 172.842 61.0484 172.842 68.0795V132.342C172.842 139.373 167.12 145.094 160.085 145.094H130.517C128.82 145.094 127.445 146.469 127.445 148.166C127.445 149.864 128.82 151.238 130.517 151.238H160.085C170.507 151.238 178.986 142.76 178.986 132.342V68.0795C178.986 57.6577 170.507 49.179 160.085 49.179ZM138.524 49.179H98.7721V33.8651C98.7721 22.9057 107.689 13.9892 118.648 13.9892C129.607 13.9892 138.524 22.9057 138.524 33.8651V49.179Z" fill="black"/>
<path d="M118.648 118.668C116.95 118.668 115.576 117.293 115.576 115.596V78.6701C115.576 76.9729 116.95 75.5981 118.648 75.5981C120.345 75.5981 121.72 76.9729 121.72 78.6701V115.596C121.72 117.289 120.345 118.668 118.648 118.668Z" fill="black"/>
</svg>
